<?xml version="1.0" encoding="UTF-8"?>
<svg version="1.1" viewBox="0 0 1024 1024" width="1024" height="1024" xmlns="http://www.w3.org/2000/svg">
<path transform="translate(293,368)" d="m0 0 15 1 18 4 12 5 11 6 14 12 11 14 9 17 5 15 4 18 2 17 1 23-2 36-5 32-6 24-6 17-8 16-7 11-10 10-9 5h-7l-6-4-5-6-1-2v-8l9-8 7-11 5-11 4-15 2-15v-9l-3-16-6-10-6-5-7-3-11-1-8 98-3 32-2 5-3 2h-44l-4-4 1-11 3-18 1-10v-14l-2-10-4-8-5-4-4-2h-12l-6 3-6 7-3 9-1 14 2 22 3 14v10l-2 2h-43l-4-5-11-42-9-35-5-25-2-19v-32l3-19 5-15 7-12 9-10 2-2 2-17 5-13 9-12 11-11 13-8 16-6 17-3 21-1 6-5 10-3zm39 76-5 4-1 7 4 6 9 1 5-5v-8l-5-5z" fill="#2095E1"/>
<path transform="translate(446,426)" d="m0 0h73v20h-51v27h46v21h-46v27h51v21h-74v-115z" fill="#151617"/>
<path transform="translate(469,561)" d="m0 0h27l9 24 23 64 8 22v2h-25l-7-22v-3h-42l-3 11-4 13-1 1h-24l3-11 22-63 13-36zm13 25-4 10-10 31v2h29l-3-11-11-32z" fill="#151516"/>
<path transform="translate(772,455)" d="m0 0h17l10 3 8 5 6 7 3 8 1 6v58h-21l-1-9-8 7-8 3h-16l-9-3-9-8-3-8v-13l4-9 8-7 13-4h28l-1-9-3-5v-2l-7-2h-8l-6 3-3 8h-22l1-8 5-10 7-6 9-4zm3 50-7 3-4 5v7l5 5 2 1h11l8-4 4-5 1-3v-9z" fill="#151516"/>
<path transform="translate(600,455)" d="m0 0h17l11 4 9 6 7 10 4 10 2 18v2h-61l3 11 5 6 8 3h9l8-3 4-6h22l-3 9-7 9-10 6-8 3h-20l-12-4-9-7-7-8-4-10-1-5v-19l4-13 6-9 9-8 9-4zm3 17-6 3-6 7-2 8h38l-2-8-5-7-7-3z" fill="#151516"/>
<path transform="translate(650,456)" d="m0 0h25l12 36 8 26 3-7 12-38 5-16 1-1h24l-1 5-22 61-7 19-1 1h-27l-4-8-11-30-10-27-7-19z" fill="#151516"/>
<path transform="translate(532,426)" d="m0 0h23v116h-23z" fill="#151515"/>
<path transform="translate(546,561)" d="m0 0h23v112h-23z" fill="#151515"/>
</svg>
