<?xml version="1.0" encoding="UTF-8"?>
<svg version="1.1" viewBox="0 0 1024 1024" width="1024" height="1024" xmlns="http://www.w3.org/2000/svg">
<path transform="translate(549,161)" d="m0 0h28l23 3 20 5 15 5 16 7 19 10 16 11 11 9 13 12 7 7 11 14 10 15 10 18 8 18 9 27 6 25 5 29 3 28 1 16v53l-2 32-4 34-6 36-9 42-10 35-8 23-10 23-10 19-8 12-10 13-9 10-10 9-12 7-9 3h-12l-9-4-8-6-9-11-2-5v-9l3-5 15-13 10-13 9-16 8-17 9-28 5-24 2-15 1-20-2-22-4-15-8-16-8-10-8-7-10-6-13-4-14-1-6 2-2 7-5 57-14 147-6 69-2 8-4 5-6 2h-90l-7-3-3-4-1-8 6-33 3-25 1-13v-34l-3-19-5-13-7-11-8-7-11-5-4-1h-18l-12 5-10 9-6 9-4 11-3 19v35l3 30 6 33 2 9v8l-3 5-7 3h-87l-7-3-3-5-12-57-11-44-15-57-9-39-5-26-4-30-2-25v-41l3-29 4-22 7-24 8-20 8-15 8-12 11-14 8-9 1-19 3-16 5-15 8-16 12-16 11-12 12-11 17-12 18-10 20-9 27-8 18-3 10-1 35-1 14-8 16-6 12-3zm101 161-9 3-7 6-3 7v11l3 7 5 5 5 3 2 1h12l8-4 6-7 2-4v-12l-4-8-6-5-9-3z" fill="#1B9CE5"/>
<path transform="translate(295,330)" d="m0 0h1l5 22 6 16 9 17 12 17 11 13 11 12 17 16 14 11 16 12 20 13 21 12 17 9 21 8 13 3 11-1 12-6 10-10 8-14 7-19 6-26 4-27 2-23 2-43 2 4 5 19 3 19 1 14v28l-2 21-5 26-6 20-6 14-8 12-7 8-10 7-11 4-6 1h-14l-17-3-20-7-25-12-23-14-17-12-13-10-13-11-10-9-7-7-8-7-7-8-12-15-10-16-8-16-5-14-3-15-1-8v-16l-2-1z" fill="#0A74C3"/>
<path transform="translate(344,226)" d="m0 0 2 1-24 24v-3l12-13z" fill="#1286D2"/>
</svg>
