<?xml version="1.0" standalone="no"?>
<!DOCTYPE svg PUBLIC "-//W3C//DTD SVG 20010904//EN"
 "http://www.w3.org/TR/2001/REC-SVG-20010904/DTD/svg10.dtd">
<svg version="1.0" xmlns="http://www.w3.org/2000/svg"
 width="1015.000000pt" height="1266.000000pt" viewBox="0 0 1015.000000 1266.000000"
 preserveAspectRatio="xMidYMid meet">

<g transform="translate(0.000000,1266.000000) scale(0.100000,-0.100000)"
fill="#000000" stroke="none">
<path d="M1930 12200 l0 -460 133 0 c290 0 924 -27 1095 -46 l52 -6 0 -5358 0
-5358 -47 -6 c-152 -18 -801 -46 -1095 -46 l-138 0 0 -460 0 -460 203 0 c398
0 1008 31 1287 66 298 37 461 95 568 203 66 65 105 133 127 216 13 53 15 679
15 5840 0 5157 -2 5787 -15 5840 -46 178 -168 304 -355 364 -224 74 -937 131
-1627 131 l-203 0 0 -460z"/>
<path d="M7685 12653 c-525 -13 -1014 -56 -1215 -104 -233 -57 -384 -191 -435
-384 -13 -53 -15 -681 -15 -5835 0 -5154 2 -5782 15 -5835 51 -193 202 -327
435 -384 236 -57 727 -94 1413 -107 l357 -7 0 461 0 462 -167 0 c-308 0 -929
26 -1085 46 l-48 6 0 5358 0 5358 48 6 c155 19 776 46 1080 46 l162 0 0 460 0
460 -222 -2 c-123 -1 -268 -3 -323 -5z"/>
<path d="M0 6329 l0 -1691 23 14 c12 8 667 387 1455 843 787 456 1432 832
1432 835 0 5 -1925 1123 -2862 1663 l-48 27 0 -1691z"/>
<path d="M8698 7176 c-797 -462 -1448 -843 -1448 -846 0 -3 651 -384 1448
-846 l1447 -841 3 843 c1 464 1 1223 0 1687 l-3 843 -1447 -840z"/>
</g>
</svg>
